<?xml version="1.0" standalone="no"?>
<!DOCTYPE svg PUBLIC "-//W3C//DTD SVG 20010904//EN"
 "http://www.w3.org/TR/2001/REC-SVG-20010904/DTD/svg10.dtd">
<svg version="1.0" xmlns="http://www.w3.org/2000/svg"
 width="512.000000pt" height="512.000000pt" viewBox="0 0 512.000000 512.000000"
 preserveAspectRatio="xMidYMid meet">

<g transform="translate(0.000000,512.000000) scale(0.100000,-0.100000)"
fill="#000000" stroke="none">
<path d="M2335 4789 c-419 -40 -851 -219 -1190 -494 -129 -105 -202 -184 -210
-228 -20 -105 54 -197 157 -197 44 0 88 28 200 128 571 510 1405 626 2096 292
402 -194 708 -499 902 -901 379 -787 176 -1733 -495 -2297 -812 -682 -2021
-578 -2703 233 -400 475 -546 1112 -393 1707 36 137 58 200 123 341 44 94 50
115 45 154 -14 131 -168 189 -266 100 -60 -55 -190 -394 -235 -612 -39 -190
-50 -325 -43 -534 11 -320 77 -593 211 -876 340 -716 1036 -1203 1821 -1275
1033 -95 2001 537 2328 1520 355 1065 -128 2221 -1138 2720 -368 182 -790 259
-1210 219z"/>
<path d="M3245 3581 c-399 -162 -662 -282 -870 -394 -232 -126 -315 -199 -386
-342 -237 -480 181 -1020 706 -910 90 19 215 81 282 140 133 117 344 526 610
1185 82 202 94 240 90 277 -9 80 -80 143 -159 143 -18 0 -141 -45 -273 -99z
m-22 -368 c-29 -79 -230 -519 -294 -643 -107 -206 -141 -250 -225 -291 -57
-28 -76 -33 -144 -33 -68 0 -87 5 -144 33 -175 86 -229 302 -115 467 48 71
211 164 549 318 122 54 370 164 377 165 1 1 -1 -7 -4 -16z"/>
</g>
</svg>
